<svg id="Capa_1" enable-background="new 0 0 510.314 510.314" height="512" viewBox="0 0 510.314 510.314" width="512" xmlns="http://www.w3.org/2000/svg"><path style="fill:red" d="m480.805 255.178 9.556-9.556c26.604-26.604 26.604-69.892 0-96.497l-1.684-1.684c-26.604-26.604-69.892-26.603-96.496 0l-9.556 9.556-29.309-29.309 9.371-9.371c12.696-12.695 19.792-29.568 19.981-47.51.193-18.24-7.362-36.367-20.726-49.731l-.939-.939c-12.695-12.696-29.568-19.792-47.51-19.981-18.203-.187-36.366 7.362-49.731 20.727l-8.626 8.626-9.367-9.367c-12.696-12.697-29.57-19.793-47.514-19.982-18.244-.213-36.37 7.366-49.741 20.74l-.187.187c-13.361 13.365-20.914 31.49-20.72 49.727.189 17.941 7.286 34.813 19.981 47.507l9.368 9.368-29.107 29.107-9.361-9.361c-26.604-26.604-69.892-26.602-96.497 0l-1.684 1.684c-26.604 26.605-26.604 69.893 0 96.497l9.361 9.361-9.715 9.715c-26.604 26.604-26.604 69.893-.001 96.496l1.685 1.685c12.869 12.869 30.003 19.956 48.248 19.956s35.379-7.087 48.249-19.957l9.715-9.715 29.309 29.309-9.531 9.531c-12.697 12.697-19.793 29.571-19.981 47.515-.191 18.243 7.366 36.37 20.74 49.74l.187.187c13.198 13.194 31.037 20.724 49.044 20.724.227 0 .457-.001.684-.004 17.94-.19 34.812-7.287 47.507-19.981l9.53-9.53 9.523 9.523c12.697 12.697 29.571 19.793 47.515 19.981.226.002.45.003.676.003 18.013 0 35.86-7.535 49.065-20.743l.187-.187c13.362-13.366 20.914-31.492 20.719-49.731-.191-17.94-7.287-34.811-19.981-47.504l-9.523-9.523 29.107-29.107 8.771 8.771c13.198 13.199 31.04 20.731 49.052 20.731.227 0 .456-.001.683-.004 17.94-.19 34.812-7.287 47.509-19.983l.944-.944c13.362-13.366 20.914-31.492 20.719-49.731-.191-17.94-7.288-34.81-19.981-47.503zm-78.018-97.129c20.757-20.755 54.528-20.754 75.283 0l1.684 1.684c20.755 20.756 20.755 54.528 0 75.284l-9.556 9.556-11.375-11.375 9.444-9.444c7.047-7.046 10.927-16.416 10.926-26.381 0-9.965-3.882-19.334-10.93-26.379l-1.568-1.567c-7.006-7.007-16.334-10.867-26.267-10.867-9.931 0-19.259 3.859-26.266 10.866l-75.147 75.147-11.376-11.376zm-114.861 158.824 29.107-29.107 33.003 33.003-29.107 29.107zm-32.588 98.595-33.003-33.003 33.003-33.003 33.003 33.003zm-43.61-43.609-11.376-11.375 94.699-94.699 11.375 11.375zm-73.273-160.492 11.376-11.376 94.901 94.901-11.376 11.375zm84.092-18.087-29.107 29.107-33.003-33.003 29.107-29.107zm32.589-98.594 33.003 33.003-33.003 33.003-33.003-33.003zm43.609 43.609 11.376 11.376-94.698 94.699-11.376-11.376zm-11.021 54.985 33.003-33.003 29.309 29.309-33.003 33.003zm-32.386 91.005-29.309-29.309 29.107-29.107 29.309 29.309zm-32.589 32.588-33.003 33.003-29.309-29.309 33.003-33.003zm137.894-6.71-94.901-94.901 11.376-11.376 94.9 94.901zm21.982-21.982-33.003-33.003 33.003-33.003 33.003 33.003zm-21.982-109.201-94.901-94.901 11.376-11.376 94.901 94.901zm-86.275-147.491c10.531-10.53 24.739-16.506 38.967-16.334 13.996.147 27.158 5.684 37.062 15.589l.939.939c10.53 10.531 16.484 24.733 16.333 38.966-.147 13.995-5.684 27.157-15.589 37.062l-9.371 9.371-11.376-11.376 9.372-9.371c7.344-7.344 11.2-17.116 10.859-27.516-.31-9.439-4.338-18.494-11.342-25.498l-1.203-1.202c-2.93-2.929-7.679-2.929-10.606.002-2.929 2.93-2.928 7.678.002 10.606l1.202 1.201c4.3 4.301 6.771 9.764 6.955 15.383.204 6.208-2.096 12.039-6.474 16.418l-9.371 9.371-33.003-33.003 8.89-8.89c2.959-2.959 6.542-5.092 10.363-6.169 3.987-1.124 6.308-5.267 5.184-9.254-1.124-3.986-5.269-6.308-9.254-5.184-6.286 1.772-12.129 5.23-16.899 10l-74.482 74.482-11.376-11.376zm-94.192 54.243c-4.378-4.378-6.677-10.209-6.474-16.417.185-5.619 2.655-11.082 6.955-15.383l.722-.722c4.301-4.301 9.764-6.771 15.383-6.955 6.212-.208 12.038 2.096 16.417 6.474l9.367 9.367-33.002 33.004zm-37.57-15.078c-.151-14.231 5.8-28.432 16.334-38.969l.187-.187c10.531-10.533 24.725-16.491 38.97-16.34 13.996.147 27.16 5.684 37.065 15.589l9.367 9.367-11.376 11.376-9.367-9.367c-7.344-7.345-17.122-11.193-27.515-10.86-9.439.31-18.495 4.337-25.498 11.341l-.722.722c-7.003 7.003-11.031 16.058-11.341 25.497-.341 10.4 3.516 20.172 10.86 27.516l74.959 74.959-11.375 11.375-74.959-74.96c-9.905-9.903-15.441-23.064-15.589-37.059zm36.332 79.017-94.699 94.699-11.375-11.375 94.699-94.699zm-125.924 63.473c-8.698-8.698-8.699-22.853-.002-31.553l1.568-1.568c4.174-4.174 9.736-6.473 15.66-6.473 5.925 0 11.486 2.299 15.66 6.473l9.361 9.361-33.003 33.003zm-22.1-53.419 1.684-1.684c20.757-20.755 54.529-20.755 75.284 0l9.361 9.361-11.376 11.376-9.361-9.361c-7.007-7.007-16.335-10.866-26.267-10.866-9.93 0-19.258 3.859-26.267 10.867l-1.569 1.569c-14.544 14.548-14.542 38.218.004 52.764l74.835 74.835-11.376 11.376-74.953-74.953c-20.755-20.756-20.755-54.528.001-75.284zm31.343 127.84 33.003 33.003-9.6 9.6c-8.698 8.698-22.851 8.698-31.549 0l-1.454-1.454c-4.213-4.214-6.534-9.816-6.534-15.775s2.321-11.561 6.534-15.774zm45.27 64.7c-10.036 10.036-23.404 15.563-37.642 15.563s-27.606-5.527-37.641-15.562l-1.685-1.685c-20.755-20.756-20.755-54.528 0-75.284l9.715-9.715 11.376 11.376-9.6 9.6c-7.047 7.046-10.928 16.416-10.928 26.381 0 9.966 3.881 19.334 10.928 26.381l1.454 1.454c7.274 7.274 16.826 10.911 26.381 10.91 9.553 0 19.109-3.637 26.381-10.91l46.245-46.245c2.929-2.929 2.929-7.678 0-10.606-2.929-2.929-7.678-2.929-10.606 0l-4.056 4.056-33.003-33.003 33.003-33.003 33.003 33.003-7.441 7.441c-2.929 2.929-2.929 7.678 0 10.606 1.464 1.464 3.384 2.197 5.303 2.197s3.839-.732 5.303-2.197l7.441-7.441 11.376 11.376zm42.304-21.091 94.9 94.9-11.376 11.376-94.9-94.9zm39.915 83.88 33.003 33.003-9.531 9.531c-4.378 4.379-10.211 6.683-16.418 6.474-5.618-.185-11.081-2.655-15.381-6.955l-1.203-1.204c-4.378-4.377-6.677-10.207-6.474-16.415.184-5.619 2.654-11.083 6.955-15.384zm45.455 64.515c-9.904 9.904-23.065 15.44-37.06 15.589-14.205.178-28.433-5.801-38.97-16.335l-.187-.187c-10.534-10.53-16.489-24.734-16.34-38.969.147-13.996 5.683-27.159 15.589-37.065l9.531-9.531 11.376 11.375-9.051 9.05c-7.003 7.004-11.031 16.061-11.34 25.5-.34 10.399 3.517 20.169 10.86 27.512l1.203 1.203c7.003 7.003 16.058 11.031 25.496 11.341.425.014.848.021 1.271.021 9.923 0 19.203-3.836 26.247-10.881l75.122-75.122 11.376 11.376zm95.252-54.992c4.379 4.379 6.678 10.21 6.474 16.419-.185 5.619-2.655 11.081-6.956 15.382l-1.202 1.202c-4.378 4.378-10.203 6.677-16.416 6.474-5.62-.184-11.083-2.654-15.385-6.955l-9.042-9.042 33.003-33.003zm37.57 15.075c.151 14.232-5.8 28.435-16.334 38.972l-.186.187c-10.531 10.534-24.717 16.493-38.97 16.34-13.996-.147-27.16-5.684-37.065-15.589l-9.523-9.523 11.376-11.376 9.042 9.043c7.004 7.003 16.061 11.031 25.5 11.34.423.014.845.021 1.267.021 9.923 0 19.202-3.836 26.247-10.88l1.202-1.202c7.003-7.002 11.03-16.057 11.341-25.495.342-10.401-3.514-20.174-10.859-27.519l-75.115-75.115 11.376-11.376 75.115 75.116c9.901 9.902 15.437 23.062 15.586 37.056zm-36.487-79.169 94.699-94.698 11.376 11.376-94.699 94.699zm126.197-63.2c4.377 4.377 6.677 10.207 6.474 16.414-.184 5.619-2.652 11.082-6.952 15.382l-1.207 1.207c-4.379 4.379-10.211 6.68-16.419 6.474-5.619-.185-11.081-2.655-15.382-6.956l-9.034-9.035 33.003-33.003zm21.242 54.041-.943.944c-9.904 9.904-23.066 15.44-37.06 15.589-14.224.167-28.438-5.803-38.969-16.334l-8.771-8.771 11.376-11.376 9.034 9.035c7.002 7.003 16.057 11.03 25.495 11.341.426.014.85.021 1.273.021 9.923 0 19.202-3.836 26.246-10.88l1.208-1.207c7.002-7.004 11.028-16.06 11.336-25.499.339-10.398-3.518-20.167-10.86-27.51l-75.109-75.109 11.376-11.376 6.044 6.044c1.464 1.464 3.384 2.197 5.303 2.197s3.839-.732 5.303-2.197c2.929-2.929 2.929-7.678 0-10.606l-6.044-6.044 9.556-9.556c4.174-4.174 9.735-6.473 15.66-6.473s11.486 2.299 15.661 6.474l1.569 1.569c4.214 4.212 6.535 9.814 6.535 15.772s-2.32 11.56-6.533 15.773l-9.444 9.444-5.483-5.483c-2.929-2.929-7.678-2.929-10.606 0-2.929 2.929-2.929 7.678 0 10.606l47.588 47.588c9.903 9.903 15.439 23.063 15.589 37.057.151 14.233-5.801 28.435-16.33 38.967z"/></svg>